# xmcd CD database file
# Copyright (C) 1997 Ti Kan
# 
# Track frame offsets:
#     182
#     22870
#     46450
#     66325
#     89522
#     103257
#     121907
#     147695
#     162105
#     177905
#     198982
# 
# Disc length: 2805 seconds
# 
# Revision: 1
# Processed by: cddbd v1.4b41PL1 Copyright (c) Steve Scherf et al.
# Submitted via: DiscPlay 4.0.4
# 
DISCID=9b0af30b
DTITLE=Ronnie McDowell - Country Dances
DYEAR=1900
DGENRE=
TTITLE0=Funky Cowboy
TTITLE1=Dancin' Shoes
TTITLE2=Little Ole Swingin' Thing
TTITLE3=Yippi Ti Yi Yo
TTITLE4=Love at First Dance
TTITLE5=Swayin' to the Music(Slow Dancing)
TTITLE6=Rockin' Pneumonia
TTITLE7=Tie One On
TTITLE8=Day Off
TTITLE9=The Twist
TTITLE10=The Gas and Food Exit(Off of I-24)
EXTD=
EXTT0=
EXTT1=
EXTT2=
EXTT3=
EXTT4=
EXTT5=
EXTT6=
EXTT7=
EXTT8=
EXTT9=
EXTT10=
PLAYORDER=
